<?xml version="1.0" encoding="UTF-8"?>
<svg xmlns="http://www.w3.org/2000/svg" width="16" height="16" viewBox="0 0 16 16" fill="none">
  <rect width="16" height="16" fill="#90388D"></rect>
  <path d="M4.4628 7.37555C3.90803 7.16536 3.5613 6.95517 3.35326 6.74497C3.14522 6.53478 3.07588 6.25452 3.07588 5.97426C3.07588 5.62394 3.21457 5.27362 3.42261 5.06342C3.63065 4.85323 3.97738 4.7131 4.32411 4.7131C4.67084 4.7131 4.94823 4.78317 5.22562 4.99336C5.503 5.20355 5.64169 5.48381 5.78038 5.83414L6.26581 5.48381C6.05777 5.06343 5.78038 4.7131 5.43365 4.50291C5.01757 4.29272 4.60149 4.15259 4.04672 4.15259C3.35326 4.15259 2.79849 4.36278 2.38241 4.78317C1.96634 5.20356 1.7583 5.76407 1.7583 6.39465C1.7583 6.8851 1.89699 7.30549 2.10503 7.58575C2.38242 7.93607 2.79849 8.21633 3.42261 8.42652C4.53215 8.91697 5.08692 9.47749 5.08692 10.1081C5.08692 10.5285 4.94822 10.8087 4.74018 11.089C4.4628 11.3692 4.18542 11.4393 3.76934 11.4393C3.49195 11.4393 3.21457 11.3692 2.93719 11.159C2.6598 10.9488 2.45176 10.7387 2.31306 10.3883L1.7583 10.8087C2.03569 11.2291 2.38241 11.5094 2.72914 11.7196C3.07588 11.9297 3.5613 11.9998 4.04672 11.9998C4.74018 11.9998 5.36431 11.7896 5.84973 11.2992C6.33515 10.8788 6.54319 10.3183 6.54319 9.61762C6.54319 9.12716 6.4045 8.70678 6.12711 8.35646C5.84972 8.0762 5.29496 7.72588 4.4628 7.37555Z" fill="white"></path>
  <path d="M12.8411 11.0187C12.4195 11.2991 11.9978 11.4393 11.5059 11.4393C10.7328 11.4393 10.1706 11.1589 9.67862 10.5982C9.25696 10.0374 9.04613 9.19627 9.04613 8.14485C9.04613 7.02334 9.25696 6.18221 9.74891 5.55136C10.1706 4.92051 10.8031 4.57004 11.5761 4.57004C12.0681 4.57004 12.4195 4.71022 12.7709 4.92051C13.1222 5.13079 13.4034 5.48126 13.6142 5.97192L14.1061 5.62145C13.825 5.13079 13.4034 4.71023 12.9114 4.42985C12.4195 4.14947 11.8572 4.00928 11.2247 4.00928C10.1706 4.00928 9.25695 4.35975 8.55417 5.13079C7.85139 5.90183 7.5 6.81306 7.5 8.00466C7.5 9.19627 7.85139 10.1075 8.55417 10.8785C9.25695 11.6496 10.1003 12 11.1545 12C11.8572 12 12.4898 11.8599 12.9817 11.5094C13.5439 11.1589 13.8953 10.6683 14.2467 10.0374L13.7547 9.75703C13.6142 10.3178 13.2628 10.7383 12.8411 11.0187Z" fill="white"></path>
</svg>
