<svg width="36" height="36" viewBox="0 0 36 36" fill="none" xmlns="http://www.w3.org/2000/svg">
<g opacity="0.5">
<path fill-rule="evenodd" clip-rule="evenodd" d="M7.39453 7.39336C10.2047 4.58133 14.0227 3 18 3C21.9773 3 25.7953 4.58133 28.6055 7.39336C31.418 10.2054 33 14.0234 33 18C33 21.9766 31.418 25.7946 28.6055 28.6066C25.7953 31.4187 21.9773 33 18 33C14.0227 33 10.2047 31.4187 7.39453 28.6066C4.58203 25.7946 3 21.9766 3 18C3.00078 14.0217 4.58148 10.2065 7.39453 7.39336ZM18.5369 14.0738C17.0791 14.6806 14.1635 15.9366 9.79005 17.8416C9.07989 18.124 8.70724 18.4003 8.67442 18.6703C8.61671 19.1264 9.18793 19.3063 9.96411 19.5508C10.0706 19.5843 10.1809 19.619 10.294 19.6559C11.0604 19.9048 12.0916 20.1961 12.626 20.2076C13.1135 20.2181 13.6549 20.0177 14.2525 19.6066C18.34 16.8488 20.4471 15.4547 20.5807 15.4247C20.6744 15.4036 20.8033 15.3769 20.89 15.4549C20.9791 15.5327 20.9697 15.6804 20.9604 15.72C20.9051 15.9609 18.6697 18.0392 17.5065 19.1207C17.1408 19.4607 16.881 19.7022 16.8283 19.7571C16.7106 19.8794 16.5906 19.9951 16.4752 20.1063C15.764 20.792 15.2303 21.3063 16.5049 22.1461C17.1229 22.5532 17.6162 22.8892 18.1092 23.225C18.6389 23.5858 19.1683 23.9464 19.8518 24.3947C20.0275 24.5099 20.1954 24.6295 20.3588 24.746C20.98 25.1889 21.5381 25.5867 22.2283 25.5232C22.6291 25.4864 23.044 25.1095 23.2526 23.9855C23.7494 21.3288 24.7268 15.5731 24.9518 13.2012C24.9729 12.9935 24.9471 12.7275 24.9283 12.6108C24.9072 12.494 24.865 12.3275 24.715 12.2045C24.5346 12.0586 24.258 12.0279 24.1338 12.0299C23.569 12.0401 22.7041 12.341 18.5369 14.0738Z" fill="#495D87"/>
</g>
</svg>
