<svg width="36" height="36" viewBox="0 0 36 36" fill="none" xmlns="http://www.w3.org/2000/svg">
<g opacity="0.5">
<path fill-rule="evenodd" clip-rule="evenodd" d="M9 3C5.68629 3 3 5.68629 3 9V27C3 30.3137 5.68629 33 9 33H27C30.3137 33 33 30.3137 33 27V9C33 5.68629 30.3137 3 27 3H9ZM24.3496 11.7505C24.4818 11.8376 24.6183 11.9179 24.7584 11.9912C25.6705 12.4509 26.5613 12.5909 27 12.5428V16.1231C27 16.1231 25.7479 16.0706 24.8186 15.8213C23.5232 15.4709 22.693 14.9328 22.693 14.9328C22.693 14.9328 22.1167 14.5473 22.0734 14.5211V21.9197C22.0734 22.3309 21.9657 23.3599 21.6429 24.2178C21.3601 24.9514 20.9557 25.6309 20.4471 26.2271C20.4471 26.2271 19.651 27.225 18.2527 27.8948C17.0872 28.4533 16.0503 28.4839 15.6385 28.4961C15.6049 28.4971 15.5754 28.4979 15.5504 28.499C15.5504 28.499 13.6359 28.5768 11.9092 27.3904L11.9005 27.3816V27.3904C11.3168 26.9785 10.7962 26.4819 10.3555 25.9165C9.8091 25.2117 9.4738 24.3757 9.38727 24.1307V24.122C9.24969 23.7059 8.96111 22.6993 9.00437 21.7277C9.07317 20.0158 9.64123 18.9611 9.7918 18.6986C10.1874 17.9788 10.7043 17.3343 11.319 16.7942C12.0207 16.1995 12.8365 15.7583 13.7152 15.4983C14.5939 15.2384 15.5163 15.1655 16.4243 15.284L16.42 18.9562C16.1209 18.8577 15.8083 18.8076 15.4937 18.8079C13.8319 18.8079 12.485 20.1781 12.485 21.8703C12.485 23.5624 13.8319 24.9326 15.4937 24.9326C16.0111 24.9333 16.5197 24.7976 16.9695 24.5389C17.401 24.291 17.7656 23.9397 18.0313 23.5159C18.297 23.092 18.4556 22.6087 18.4932 22.1083V22.1004C18.4954 22.0899 18.4954 22.0794 18.4954 22.0693C18.4958 22.0614 18.4963 22.0537 18.4968 22.0463C18.4979 22.031 18.4989 22.0164 18.4989 22.0011C18.5067 21.8182 18.5067 21.6332 18.5067 21.4459V7.5H22.0734C22.0678 7.5 22.0306 7.84561 22.1206 8.37977H22.1163C22.224 9.0233 22.5165 9.94244 23.2995 10.8485C23.6125 11.1906 23.9651 11.4935 24.3496 11.7505Z" fill="#495D87"/>
</g>
</svg>
