<svg width="465" height="164" viewBox="0 0 465 164" fill="none" xmlns="http://www.w3.org/2000/svg">
<path fill-rule="evenodd" clip-rule="evenodd" d="M178.161 63.0176H172.843L198.105 0L224.43 63.0176H212.198L205.816 46.6013H184.543L178.161 63.0176ZM195.179 20.1233L186.138 42.6296H204.221L195.179 20.1233ZM13.8275 21.4473C15.4229 23.036 18.348 24.8895 22.6026 26.7429C29.5163 29.6555 34.0368 32.5681 36.1642 35.2159C38.2915 37.8637 39.3551 41.3058 39.3551 45.5423C39.3551 51.1027 37.2278 55.6039 33.505 59.3109C29.5163 62.753 24.7299 64.6065 18.8798 64.6065C14.6252 64.6065 11.1683 63.8121 7.97739 62.2234C5.05234 60.37 2.39322 57.987 0 54.5448L4.78643 51.3675C6.38191 54.0153 7.97739 56.1335 10.1047 57.4574C12.232 58.7813 14.6252 59.5756 17.0184 59.5756C20.2094 59.5756 22.8685 58.5165 24.9958 56.3983C27.1231 54.28 28.1868 51.6322 28.1868 48.4549C28.1868 43.1593 23.6662 38.658 14.3593 34.9511H14.0934C9.04104 32.8329 5.58417 30.7146 3.45687 28.0668C1.32956 25.419 0.265913 22.2417 0.265913 18.27C0.265913 12.9744 2.1273 8.4731 5.58417 5.03096C9.04104 1.58881 13.5616 0.000134561 19.4116 0.000134561C23.6662 0.000134561 27.389 1.05925 30.3141 2.91272C33.505 5.03096 35.8982 7.67876 37.4937 11.1209L33.505 13.7687C32.4414 10.8561 31.1118 8.73788 28.9845 7.1492C27.1231 5.56052 24.7299 4.76618 21.8049 4.76618C18.6139 4.76618 16.2207 5.56052 14.3593 7.67876C12.4979 9.53222 11.4343 11.9152 11.4343 15.0926C11.4343 17.4756 12.232 19.5939 13.8275 21.4473ZM90.9432 53.7506C92.8046 50.838 93.8682 45.8072 93.8682 38.6581H94.1341V1.32412H99.7183V40.7764C99.7183 48.7198 98.1228 54.8097 94.4 58.7814C90.6772 62.7531 85.0931 64.8713 77.9134 64.8713C74.7225 64.8713 71.5315 64.077 68.6065 63.0179C65.4155 61.9588 63.0223 60.3701 61.1609 58.2518C59.2995 56.1336 57.97 54.0154 57.1722 51.3676C56.3745 48.7198 55.8427 45.2776 55.8427 40.7764V1.5889H67.2769V38.6581C67.2769 45.8072 68.0747 50.838 70.202 53.7506C72.3293 56.6632 75.7861 57.9871 80.5726 57.9871C85.359 57.9871 88.8159 56.6632 90.9432 53.7506ZM160.079 36.0103C157.951 33.3625 154.76 31.2443 150.506 30.1851C153.963 29.3908 156.622 27.8021 158.483 25.4191C160.345 23.0361 161.142 20.3883 161.142 16.9461C161.142 14.0336 160.345 11.3858 159.015 9.00274C157.685 6.61972 155.558 4.76626 153.165 3.44236C151.835 2.64802 149.708 2.11846 147.315 1.85368C144.656 1.5889 141.465 1.32412 137.742 1.32412H119.394V63.0179H141.199C148.644 63.0179 154.229 61.694 157.951 59.0462C161.674 56.3984 163.27 52.1619 163.27 46.6015C163.536 42.365 162.472 38.9229 160.079 36.0103ZM131.094 5.29582H135.615C140.667 5.29582 144.39 6.35494 146.783 8.2084C149.176 10.0619 150.506 12.9744 150.506 16.9461C150.506 21.1826 149.442 24.0952 147.315 25.9487C145.188 27.8021 141.731 28.8612 136.678 28.8612H131.094V5.29582ZM148.91 56.1336C146.783 57.9871 143.06 59.0462 138.274 59.0462H131.094V32.5682H136.678C141.997 32.5682 145.985 33.8921 148.644 36.2751C151.304 38.6581 152.633 42.365 152.633 47.3959C152.367 51.3676 151.304 54.2801 148.91 56.1336ZM276.284 29.9204C278.943 27.2726 280.538 23.8304 280.538 19.3292C280.538 13.504 278.677 9.00274 274.688 5.82538C270.7 2.9128 264.85 1.32412 257.138 1.32412H236.929V63.0179H248.363V5.29582H253.149C258.468 5.29582 262.456 6.35494 265.116 8.73796C267.775 10.8562 269.104 14.2983 269.104 19.0644C269.104 23.3009 267.775 26.2134 265.116 28.3317C262.456 30.1852 257.936 31.5091 251.288 32.0386L267.775 63.2827H280.538L264.052 34.4216C269.636 33.8921 273.625 32.3034 276.284 29.9204ZM335.315 63.0179H297.023V1.32412H335.315V5.82538H308.458V28.5965H333.188V33.0977H308.458V58.2518H335.315V63.0179ZM372.81 43.4242L356.324 1.32412H344.358L369.885 64.6066L394.349 1.32412H388.499L372.81 43.4242ZM400.732 63.0176H395.147L420.675 0L447.001 63.0176H434.769L428.387 46.6013H407.114L400.732 63.0176ZM417.75 20.1233L408.709 42.6296H426.791L417.75 20.1233ZM51.3212 139.261C49.1939 143.763 46.5348 146.94 43.3438 149.323C40.1529 151.706 36.4301 152.765 32.1755 152.765C26.0595 152.765 21.0072 150.382 17.5503 145.616C14.0934 140.85 12.4979 134.23 12.4979 125.757C12.4979 117.02 14.3593 109.871 17.8162 104.84C21.539 99.809 26.3254 97.1612 32.4414 97.1612C36.1642 97.1612 39.3552 98.2204 42.2802 100.074C45.2053 101.927 47.5985 104.84 49.4599 108.547L53.1826 105.899C50.7894 101.662 47.5985 98.4851 43.6098 96.3669C39.887 94.2487 35.3665 93.1895 30.0482 93.1895C21.539 93.1895 14.3593 96.3669 8.50921 102.457C2.65912 108.547 0 116.225 0 125.493C0 135.025 2.92504 142.703 8.50921 148.793C14.0934 154.883 21.273 157.796 29.7823 157.796C35.3664 157.796 40.4188 156.472 44.6734 153.559C48.928 150.647 52.3849 146.675 54.7781 141.644L51.3212 139.261ZM80.8369 151.442H107.428V156.208H69.1367V94.5145H80.8369V151.442ZM130.83 94.5145H119.396V156.208H130.83V94.5145ZM161.941 94.5145L193.85 137.144V94.5145H199.435V156.208H193.85L156.889 106.959V156.208H151.304V94.5145H161.941ZM231.61 94.5145H220.176V156.208H231.61V94.5145ZM290.909 149.323C294.1 146.94 296.759 143.763 298.886 139.261L302.343 141.644C299.95 146.675 296.493 150.647 292.238 153.559C287.984 156.472 282.931 157.796 277.347 157.796C268.838 157.796 261.658 154.883 256.074 148.793C250.49 142.703 247.565 135.025 247.565 125.493C247.565 116.225 250.224 108.547 256.074 102.457C261.924 96.3669 269.104 93.1895 277.613 93.1895C282.931 93.1895 287.452 94.2487 291.175 96.3669C295.163 98.4851 298.354 101.662 300.747 105.899L297.025 108.547C295.163 104.84 292.77 101.927 289.845 100.074C286.92 98.2204 283.729 97.1612 280.006 97.1612C273.89 97.1612 269.104 99.809 265.381 104.84C261.924 109.871 260.063 117.02 260.063 125.757C260.063 134.23 261.658 140.85 265.115 145.616C268.572 150.382 273.624 152.765 279.74 152.765C283.995 152.765 287.718 151.706 290.909 149.323Z" fill="#333333"/>
<path d="M353.691 156.388V136.972H343.159L342.988 142.015C342.919 143.707 342.805 145.331 342.645 146.886C342.508 148.441 342.302 149.847 342.027 151.105C341.753 152.34 341.364 153.358 340.861 154.158C340.381 154.958 339.763 155.45 339.009 155.633L335.304 155.016C336.196 155.084 336.928 154.787 337.499 154.124C338.094 153.438 338.551 152.489 338.871 151.276C339.214 150.042 339.466 148.612 339.626 146.989C339.786 145.342 339.901 143.581 339.969 141.706L340.209 133.988H357.087V156.388H353.691ZM334.446 163.248L334.481 155.016H360.62V163.248H357.43V158H337.671L337.637 163.248H334.446Z" fill="#15223D"/>
<path d="M365.996 158V133.988H369.392V152.511L383.593 133.988H386.749V158H383.387V139.51L369.151 158H365.996Z" fill="#15223D"/>
<path d="M394.922 158V133.988H405.247C407.854 133.988 409.901 134.514 411.387 135.566C412.874 136.617 413.617 138.15 413.617 140.162C413.617 142.129 412.908 143.638 411.49 144.69C410.072 145.719 408.209 146.234 405.899 146.234L406.516 145.205C409.192 145.205 411.239 145.742 412.657 146.817C414.097 147.869 414.818 149.413 414.818 151.448C414.818 153.506 414.063 155.118 412.554 156.285C411.067 157.428 408.849 158 405.899 158H394.922ZM398.318 155.29H405.83C407.66 155.29 409.032 154.958 409.947 154.295C410.884 153.609 411.353 152.569 411.353 151.174C411.353 149.779 410.884 148.761 409.947 148.121C409.032 147.48 407.66 147.16 405.83 147.16H398.318V155.29ZM398.318 144.553H405.007C406.676 144.553 407.946 144.221 408.815 143.558C409.706 142.895 410.152 141.923 410.152 140.642C410.152 139.339 409.706 138.356 408.815 137.692C407.946 137.029 406.676 136.698 405.007 136.698H398.318V144.553Z" fill="#15223D"/>
<path d="M420.831 154.981C422.02 155.416 423.118 155.53 424.124 155.324C425.131 155.096 426.034 154.33 426.834 153.026L428.001 151.174L428.344 150.796L437.16 133.988H440.556L429.887 153.746C429.087 155.256 428.149 156.399 427.074 157.177C426.022 157.931 424.879 158.343 423.644 158.412C422.432 158.503 421.197 158.274 419.939 157.726L420.831 154.981ZM428.241 153.849L417.71 133.988H421.38L430.127 151.105L428.241 153.849Z" fill="#15223D"/>
<path d="M457.808 144.793V147.606H444.944V144.793H457.808ZM454.755 158.274C453.017 158.274 451.404 157.977 449.918 157.383C448.454 156.765 447.174 155.907 446.076 154.81C445.001 153.689 444.155 152.386 443.537 150.899C442.943 149.413 442.646 147.778 442.646 145.994C442.646 144.21 442.943 142.575 443.537 141.088C444.155 139.602 445.001 138.31 446.076 137.212C447.174 136.092 448.454 135.234 449.918 134.639C451.404 134.022 453.017 133.713 454.755 133.713C456.676 133.713 458.437 134.033 460.037 134.674C461.661 135.314 463.01 136.252 464.085 137.487L461.958 139.648C460.998 138.664 459.923 137.944 458.734 137.487C457.568 137.029 456.298 136.8 454.926 136.8C453.668 136.8 452.491 137.029 451.393 137.487C450.318 137.944 449.38 138.584 448.58 139.408C447.802 140.208 447.196 141.18 446.762 142.323C446.327 143.444 446.11 144.667 446.11 145.994C446.11 147.32 446.327 148.555 446.762 149.699C447.196 150.819 447.802 151.791 448.58 152.614C449.38 153.415 450.318 154.044 451.393 154.501C452.491 154.958 453.668 155.187 454.926 155.187C456.298 155.187 457.568 154.958 458.734 154.501C459.923 154.044 460.998 153.323 461.958 152.34L464.085 154.501C463.01 155.736 461.661 156.674 460.037 157.314C458.437 157.954 456.676 158.274 454.755 158.274Z" fill="#15223D"/>
</svg>
