<?xml version="1.0" encoding="UTF-8"?>
<svg xmlns="http://www.w3.org/2000/svg" width="663" height="262" viewBox="0 0 663 262" fill="none">
  <path d="M5.49023 36V0.740479H32.086V5.02199H10.4769V15.0961H21.4578C25.6553 15.0961 28.8455 15.9692 31.0282 17.7154C33.2109 19.4616 34.3023 21.9969 34.3023 25.3214C34.3023 28.7466 33.1102 31.3827 30.726 33.2296C28.3753 35.0765 25.0005 36 20.6015 36H5.49023ZM10.4769 32.0207H20.4C23.3215 32.0207 25.521 31.4666 26.9985 30.3585C28.5097 29.2503 29.2652 27.6049 29.2652 25.4221C29.2652 21.191 26.3101 19.0754 20.4 19.0754H10.4769V32.0207Z" fill="#000125"></path>
  <path d="M42.109 31.5674C43.8552 32.2054 45.467 32.3733 46.9446 32.0711C48.4221 31.7353 49.7485 30.6103 50.9239 28.6962L52.6365 25.9762L53.1402 25.4221L66.0854 0.740479H71.0721L55.4068 29.754C54.2315 31.9703 52.8547 33.6494 51.2764 34.7911C49.7317 35.8993 48.0527 36.5037 46.2394 36.6044C44.4596 36.7388 42.6463 36.403 40.7993 35.597L42.109 31.5674ZM52.9891 29.9051L37.5252 0.740479H42.9149L55.7594 25.8755L52.9891 29.9051Z" fill="#000125"></path>
  <path d="M100.335 33.6326V5.12273H84.871L84.6191 12.5272C84.5184 15.0122 84.3505 17.3964 84.1154 19.6799C83.9139 21.9633 83.6117 24.0285 83.2087 25.8755C82.8058 27.6888 82.2349 29.1832 81.4961 30.3585C80.7909 31.5338 79.8843 32.2558 78.7761 32.5244L73.3361 31.6177C74.6457 31.7185 75.7203 31.2819 76.5598 30.3081C77.4329 29.3007 78.1045 27.9071 78.5746 26.1273C79.0783 24.314 79.4477 22.2152 79.6828 19.831C79.9178 17.4132 80.0858 14.8275 80.1865 12.0739L80.5391 0.740479H105.321V33.6326H100.335ZM72.0768 43.7067L72.1272 31.6177H110.51V43.7067H105.825V36H76.8117L76.7613 43.7067H72.0768Z" fill="#000125"></path>
  <path d="M122.987 15.9524H141.121V20.234H122.987V15.9524ZM123.44 31.6177H143.992V36H118.403V0.740479H143.286V5.12273H123.44V31.6177Z" fill="#000125"></path>
  <path d="M160.112 36V3.81309L161.372 5.12273H148.074V0.740479H177.138V5.12273H163.84L165.049 3.81309V36H160.112Z" fill="#000125"></path>
  <path d="M385.873 90.9419C377.726 84.9757 369.578 80.5011 359.95 77.518C351.062 74.5349 341.434 73.0433 331.806 73.0433C319.956 73.0433 308.105 75.2807 296.996 79.7553C285.886 84.2299 276.258 90.9419 267.37 99.8912C258.482 108.84 251.817 118.535 247.373 129.722C242.929 140.909 240.707 153.587 240.707 167.011C240.707 180.435 242.929 192.367 247.373 204.299C251.817 215.486 258.482 225.927 267.37 234.876C276.258 243.825 285.886 250.537 296.996 255.012C308.105 259.487 319.956 261.724 331.806 261.724C344.397 261.724 355.506 259.487 366.616 255.012C377.726 250.537 387.354 243.825 396.242 234.876C405.129 225.927 411.795 216.232 416.239 205.045C420.683 193.859 422.905 181.18 422.905 167.756C422.905 152.095 419.942 137.926 413.276 124.502C406.611 111.078 397.723 99.8912 385.873 90.9419ZM371.8 226.673C361.431 241.588 348.1 249.792 331.806 249.792C315.512 249.792 302.18 242.334 291.811 226.673C281.442 211.757 276.258 191.621 276.258 167.011C276.258 142.4 281.442 122.264 291.811 107.349C302.18 92.4334 315.512 84.2299 331.806 84.2299C348.1 84.2299 361.431 91.6877 371.8 107.349C382.169 122.264 387.354 142.4 387.354 167.011C387.354 191.621 382.169 211.757 371.8 226.673Z" fill="#000125"></path>
  <path d="M156.275 199.824L108.874 77.5174H74.0641L102.949 149.112L82.9518 201.316L34.8101 77.5174H0L74.0641 260.978L110.355 165.519L148.128 260.978L218.489 77.5174H201.454L156.275 199.824Z" fill="#000125"></path>
  <path d="M600.66 199.824L552.518 77.5174H518.449L547.334 149.112L527.337 201.316L479.195 77.5174H444.385L518.449 260.978L554 165.519L591.772 260.978L662.874 77.5174H645.839L600.66 199.824Z" fill="#000125"></path>
</svg>
